<svg xmlns="http://www.w3.org/2000/svg" viewBox="0 0 1701.74 1049.19"><defs><style>.cls-1{fill:#638099;}.cls-2,.cls-3{fill:#7b2a53;}.cls-2{fill-rule:evenodd;}</style></defs><title>Asset 2</title><g id="Layer_2" data-name="Layer 2"><g id="Layer_1-2" data-name="Layer 1"><path class="cls-1" d="M4.56,843.75a15.94,15.94,0,0,0,2.27,3.49c2.63,3.06,5.25,3.55,6.68,2.59,4.14-2.77-3.74-11.74-7.16-13-2.95-1.06-4.38,1.44-1.79,6.88M247.62,589.23c-2.79,3.86,1,13.17,6.18,8.32,1.48-1.39,2.83-3.58,2.58-5.53C255.83,587.86,250.18,585.68,247.62,589.23ZM310,129.36C279.46,194.05,219.31,242.5,185.3,304.28c-41.5,75.38-32.46,155.36,33.77,213.84,85.3,75.32,243.92,87.51,304-23.22,43.11-79.46,20.11-174.35,40.82-269.18.69-3.19,1.86-4.28,2.82-4,1.32.33,1.9,2.21,1.6,5.08-9.89,97.19,16.24,194.51-24.57,282.66-22.79,49.23-67,86.78-120.33,98.09-17.4,3.69-35.59,4.88-56.37,5.7-17.66.7-34.91,1.63-49.39,6-11.83,3.57-22.53,9.9-31.25,21.39-8.59,11.33-17.41,30.66-25.64,51.61-12.69,32.29-30.17,76.92-39,110.29-6.07,23,1.13,36.12,17.49,51.4,22.51,21,60.08,42.59,79.68,59.6,34.43,29.9,22.76,50.55-24.75,51.43-68.9,1.27-161.64-31.72-219.88-65.85-12.77-7.48-32.66-20-47.95-33.28-7.47-6.51-3.09-11.47,3.87-5.93,34.52,27.43,102.37,59,165.64,77.24,11.15,3.22,24.69,6.74,38.66,9.43,15.81,3,64,9.74,66.66-11.14s-60.12-61.17-75.82-68.78A101.9,101.9,0,0,0,207.84,860c-8.91-2.45-25.13-4.1-35.06-8.23-5.69-2.37-11.37-6.34.15-4.43a72.81,72.81,0,0,0,13.36.35c15.46-1.44,16.63-11.07,17.57-24.36,1.36-19.26,7.86-35.89,13.6-54.27,6.63-21.24,15.21-44.62,23.83-66.6,5.15-13.12,10.65-28.1,17-41.85a216.79,216.79,0,0,1,13.38-25c2.07-3.27,4.48-6.38,6.63-9.63,5.74-8.69,9.89-21.07-1.41-27.54-6.81-3.9-14-1.88-18.84,9.19a71.51,71.51,0,0,0-3.54,10.79c-2.41,9.43-4.83,18.16-7.35,26.57-12.13,40.51-28.66,80.49-45,119.49-12.48,29.78-22.54,56.57-58.94,61.46-22.72,3-48.53-2.8-69.29-6.35-19.39-3.31-39.09-6.87-53.76-4.37-5.85,1-12.14,3.32-16.36,7.64a17,17,0,0,0-2,2.51,1.76,1.76,0,0,1-.63.66c-.29.13-.73,0-.94-.62a5.78,5.78,0,0,1,.05-2.75,14.3,14.3,0,0,1,2.13-4.71,20.87,20.87,0,0,1,6.41-5.7c5.8-3.41,13.28-5,19-5.56,10.05-.95,20.61,0,27.83.73,25.52,2.49,57.43,8.76,78.65,6s32.07-10.25,39.9-22.31c18.25-28.12,45-105.92,55.44-138.58,12.32-38.7,9.29-59.07-18.78-87.6-12.26-12.46-23.4-22-33.88-32.52-27.21-27.31-45.64-60.92-52.19-99.14-4.55-26.56-2.11-54,5.37-79.61,27.4-93.79,116.27-151.05,175.84-226.81a9.41,9.41,0,0,1,1.71-1.74c1.72-1.29,3.55-.8,3.28,1.56A9.14,9.14,0,0,1,310,129.36Z"/><path class="cls-1" d="M151.21,840c-1.35.19-1.47,1-.49,2.15a14.34,14.34,0,0,0,8.08,3.9c2.13.08,2.07-1.5.3-3.14s-5.29-3.27-7.89-2.91"/><path class="cls-2" d="M636.31,153c29.49-18,73.56-10.83,88.61,15.5,15.43,27.91-16.4,48.56-38.7,21.8-2.23-2.68-4.16-5.35-5.8-7.58-9.51-12.84-23.87-26.84-44.11-29.72"/><path class="cls-2" d="M556.94,192.25c1-21.62,16.4-38.59,33.94-39.37,13.27-1,17.23,15.32,2.82,18-9.2,1.7-25.74,4.44-36.76,21.39"/><path class="cls-2" d="M544,222.41c-4.3-1.69.3-12.43,3.68-14.94,2-1.51,3.38-.21,2.77,4.67s-3,11.61-6.45,10.26M329.14,327.59c34,9.57,43.57-35.22,1-45.59C256,263.91,196.72,319.5,179.22,383.6c-.24-4.37,1.41-17.65,3.12-25.67,10.28-48.18,42.2-93.34,86.35-112.09a157.15,157.15,0,0,1,86.07-10c53.24,8.87,101.49,49.81,101.06,107.25a76.24,76.24,0,0,1-14.46,44.75c-17.34,24-51.16,36-90.73,14.73-53.21-28.63-79.69,22.7-32.24,54.89C372.53,494.2,452.54,479.42,485.63,421c21.31-37.66,25.83-87.72,35.47-130.47,2.16-9.57,6.9-28,12.13-41a76.79,76.79,0,0,1,4.5-9.84c2.59-4.38,5.43-5.5,5.72.6a69.82,69.82,0,0,1-.79,11.13C529.59,353.47,558.91,504.08,434,546.53,368,569,283.68,547,232,501.38c-18.21-16.08-30.85-36.46-36.45-58.31C181.26,387.36,211.73,337.78,260,324.14c21.43-6.05,41.07-4.08,62.18,1.55C324.49,326.29,326.79,326.93,329.14,327.59Z"/><path class="cls-2" d="M269.61,228.73c12.82-28.28,48.43-48.12,75.63-44,12.47,1.57,20.3,10.78,19.73,19-.52,7.49-8.27,14.15-21.71,13.08-21.62-2-52.9-.61-73.66,11.9"/><path class="cls-2" d="M397.87,232.54a98.56,98.56,0,0,0-24-12.47c10.26-7.87,28.51-7,36.75-.52,10.23,8,.82,22.26-12.76,13"/><path class="cls-2" d="M321,405.73c7.07.36,12.81,4.46,12.81,9.16s-5.73,8.2-12.81,7.84-12.8-4.46-12.8-9.16,5.73-8.2,12.8-7.84"/></g><g id="Layer_2-2" data-name="Layer 2"><path class="cls-3" d="M602.64,459a11.75,11.75,0,0,1-7.83-1,27.34,27.34,0,0,1-7.22-4.94,33.83,33.83,0,0,1-5.67-7.07,25.37,25.37,0,0,1-3.21-7.38,70.12,70.12,0,0,1,.86-33.92,98.74,98.74,0,0,1,15.16-32.37,119.33,119.33,0,0,1,25.46-26.11,89.54,89.54,0,0,1,31.67-15.61q27.24-7.25,42.15,2.52t19,32.15q2.56,15.65,3.6,26.81a159.34,159.34,0,0,1,.74,19.86q-.29,8.69-1.21,15.74T714.85,442q5.26-16.91,12.94-38.71t16.38-42.54q8.68-20.74,17.41-36.94t16.51-22a7.64,7.64,0,0,1,4.15-.7,20.09,20.09,0,0,1,5.85,1.2,19.1,19.1,0,0,1,5.87,3.48,11.22,11.22,0,0,1,3.71,6.25,7.58,7.58,0,0,1-.3,3.11,231.5,231.5,0,0,0-11,36q-4,18.15-7.33,36.66a176.62,176.62,0,0,0-2.57,17.57Q775.32,416,774.78,428t-.28,23.13a72.75,72.75,0,0,0,2.5,18.69q2-11.11,6-25.72t9.48-30.56q5.48-16,12-31.9t13.06-29.35a227,227,0,0,1,13.12-23.54q6.55-10.12,12.27-14a12.24,12.24,0,0,1,5.65-.79,25.41,25.41,0,0,1,7.7,1.53,31.48,31.48,0,0,1,7.18,3.68c2.2,1.52,3.5,3.09,3.86,4.69a7.44,7.44,0,0,1-.32,4.13,27.71,27.71,0,0,0-1.18,4.83q-5.67,19.55-10.73,41.75T847,420.1a362.24,362.24,0,0,0-3.09,46.34,196.34,196.34,0,0,0,4.81,44.28,80.27,80.27,0,0,0,4.59,13.4,63.42,63.42,0,0,0,8.29,14.08,44.6,44.6,0,0,0,11.54,10.54A20.55,20.55,0,0,0,888,551.43q13.7-2.13,20.74-9.06a40.93,40.93,0,0,0,9.88-14.43,36.61,36.61,0,0,0,2.73-13.55q-.13-6.06-.6-5.95c1.93-.44,4.89,0,8.91,1.26s6.47,4.68,7.41,10.22q2.42,10.59-2.59,18.59a47.17,47.17,0,0,1-13.1,13.65,62.22,62.22,0,0,1-17.08,8.47q-9,2.82-14,3-14.2,2.23-25.85-2.2a60.64,60.64,0,0,1-20.78-13.25,81,81,0,0,1-15.41-20.81,103,103,0,0,1-9.27-25,170.31,170.31,0,0,1-4-32.81,299.21,299.21,0,0,1,1.22-36.79q1.76-18.91,4.91-38.39t7.59-37.74q-6.54,9.1-12.82,23.72t-11.89,31.12q-5.61,16.5-10.14,33.25t-8.23,30.53q-3.69,13.77-6.27,22.48t-3.54,8.92q-5.78,1.32-9.8-1.81a25.07,25.07,0,0,1-6.67-8.11,50.26,50.26,0,0,1-4.17-10.46q-1.51-5.48-2.39-9.34a159,159,0,0,1-3.94-33.83,257.62,257.62,0,0,1,2-34.67,337.23,337.23,0,0,1,6-33.81q3.81-16.58,7.58-31.14a372.84,372.84,0,0,0-19.08,42.9q-8.49,22.74-15.39,46.87T717.16,482q-5.77,24.65-11.52,48.27-5.91,25.19-15.73,34.28t-17.54,10.86a29.18,29.18,0,0,1-7,.58c-2.72-.06-4.22-.73-4.52-2a2,2,0,0,1,.15-1.56l.74-1.18a45.32,45.32,0,0,0,7-10.47,89.41,89.41,0,0,0,4.73-11.48,69.42,69.42,0,0,0,2.54-10q.75-4.47,1.27-6.63,2.84-16.36,6.29-35.66T689,457.52a361.74,361.74,0,0,0,1.65-40.43,187.8,187.8,0,0,0-4.61-39,111.35,111.35,0,0,0-4.11-13.51,51.44,51.44,0,0,0-7.05-13.09,32.54,32.54,0,0,0-10.19-9.08q-5.81-3.23-13.52-1.47-11.09,2.54-22.11,14.19a114.72,114.72,0,0,0-18.89,27.14,132,132,0,0,0-11.43,32q-3.57,16.54.26,28.84,1.36,3.75,3,7.43a36.52,36.52,0,0,1,2.16,6.1A1.75,1.75,0,0,1,602.64,459Z"/><path class="cls-3" d="M961.25,435.27a6.2,6.2,0,0,1,1.64-3.92,6.29,6.29,0,0,1,3.28-2.27,2.22,2.22,0,0,1,2.61,1.43q.92,1.82,0,6.6a68.59,68.59,0,0,1-9.64,26.54,101.5,101.5,0,0,1-16.84,20.59,78,78,0,0,1-19.94,13.69,63.43,63.43,0,0,1-19.42,6q-14.89,1.39-26.65-4.55T860.86,473q-2.27-12.15.65-29.3a148.92,148.92,0,0,1,10-33.73,105.63,105.63,0,0,1,18.63-29.36,51.91,51.91,0,0,1,27.43-16.42q9.63-2.2,15.65-.29a24.13,24.13,0,0,1,9.6,5.41,19.73,19.73,0,0,1,5,7.23,53.94,53.94,0,0,1,1.8,5.67q2.23,14.2-2.55,25.43a55.51,55.51,0,0,1-14.24,19.74,84.65,84.65,0,0,1-21.86,14.13A131,131,0,0,1,886,450c-1.61.37-2.69,1.55-3.25,3.53a22.69,22.69,0,0,0-.73,6.76,57.13,57.13,0,0,0,.64,7.21c.35,2.29.6,3.75.75,4.39q1.17,7.34,4.52,10.88a19.09,19.09,0,0,0,7.75,5.07,23.16,23.16,0,0,0,9.63,1.09,68.51,68.51,0,0,0,9.56-1.43A47.53,47.53,0,0,0,931,480.23a81.71,81.71,0,0,0,14.4-12.42A64.23,64.23,0,0,0,956,452.2,56.06,56.06,0,0,0,961.25,435.27Zm-91.92,3.8a4.74,4.74,0,0,1,3-2.22q3.85-.88,9.15,1.2t9.15,1.2a52.77,52.77,0,0,0,17.72-7.86,57.68,57.68,0,0,0,14.55-14,60.14,60.14,0,0,0,9-18.28,48.48,48.48,0,0,0,1.67-20.41q-1.43-6.25-4.17-7.16a9.56,9.56,0,0,0-5.15-.34,25.92,25.92,0,0,0-12.42,6.65,55.81,55.81,0,0,0-9.23,11.75,83.38,83.38,0,0,0-6.82,14.49q-2.79,7.74-5.32,14.4c-1,3.26-1.7,5.89-2.26,7.87s-1.12,4-1.68,6a9.85,9.85,0,0,0-.51,4.43,15.21,15.21,0,0,1-6.52-.79,11.29,11.29,0,0,0-6.41-.31,4.09,4.09,0,0,0-2.06,1,15.33,15.33,0,0,1-1.47,1.35l-1.11,1.78A1.43,1.43,0,0,1,869.33,439.07Z"/><path class="cls-3" d="M1062.43,412.12a6.21,6.21,0,0,1,1.64-3.92,6.29,6.29,0,0,1,3.28-2.27,2.22,2.22,0,0,1,2.61,1.43q.92,1.82,0,6.6a68.59,68.59,0,0,1-9.64,26.54,101.56,101.56,0,0,1-16.84,20.59,77.94,77.94,0,0,1-19.94,13.69,63.4,63.4,0,0,1-19.42,6q-14.89,1.39-26.65-4.55T962,449.8q-2.27-12.15.65-29.3a148.83,148.83,0,0,1,10-33.73,105.62,105.62,0,0,1,18.63-29.36A51.91,51.91,0,0,1,1018.77,341q9.63-2.2,15.65-.29a24.13,24.13,0,0,1,9.6,5.41,19.73,19.73,0,0,1,5,7.23,53.94,53.94,0,0,1,1.8,5.67q2.23,14.2-2.55,25.43A55.52,55.52,0,0,1,1034,404.18a84.67,84.67,0,0,1-21.87,14.13,130.84,130.84,0,0,1-24.93,8.49c-1.61.37-2.69,1.55-3.25,3.53a22.65,22.65,0,0,0-.73,6.76,57,57,0,0,0,.63,7.21c.35,2.29.61,3.75.75,4.39q1.17,7.34,4.52,10.88a19.08,19.08,0,0,0,7.75,5.07,23.17,23.17,0,0,0,9.63,1.09,68.51,68.51,0,0,0,9.56-1.43,47.54,47.54,0,0,0,16.09-7.23,81.69,81.69,0,0,0,14.4-12.42A64.24,64.24,0,0,0,1057.17,429,56.05,56.05,0,0,0,1062.43,412.12Zm-91.92,3.8a4.74,4.74,0,0,1,3-2.22q3.85-.88,9.15,1.2t9.15,1.2a52.77,52.77,0,0,0,17.72-7.86,57.66,57.66,0,0,0,14.55-14,60.14,60.14,0,0,0,9-18.28,48.5,48.5,0,0,0,1.67-20.41q-1.43-6.25-4.17-7.16a9.56,9.56,0,0,0-5.15-.34,25.92,25.92,0,0,0-12.42,6.65,55.83,55.83,0,0,0-9.23,11.75A83.45,83.45,0,0,0,997,381q-2.79,7.74-5.32,14.4c-.95,3.26-1.7,5.89-2.26,7.87s-1.12,4-1.68,6a9.86,9.86,0,0,0-.51,4.43,15.21,15.21,0,0,1-6.52-.79,11.29,11.29,0,0,0-6.41-.31,4.09,4.09,0,0,0-2.06,1,15.36,15.36,0,0,1-1.46,1.35l-1.12,1.78A1.43,1.43,0,0,1,970.51,415.92Z"/><path class="cls-3" d="M1125,390.71c.45-2.46,1.47-3.88,3.08-4.25q3.37-.77,4.59,4.53a9.27,9.27,0,0,1,.14,5q-2,9.08-4.94,19.38a115.43,115.43,0,0,1-7.47,19.41,64.32,64.32,0,0,1-10.62,15.61,27.09,27.09,0,0,1-13.82,8.28q-10.6,2.43-17.43-.83a23.79,23.79,0,0,1-10.6-9.74,45.56,45.56,0,0,1-5.27-15.27,76.43,76.43,0,0,1-1-17.53l9.15-79.67a118.82,118.82,0,0,1,2.1-15.18,135.5,135.5,0,0,0,2.21-14.7,52.36,52.36,0,0,0,11.76-6.24q5.23-3.73,7.42-5.25a106.27,106.27,0,0,1-11.36,4.63q-4.95,1.64-10.25,2.85-22.5,3.63-31-.5t-10.09-10.87c-.37-1.6,0-2.35,1-2.26s2.44.29,4.19.56q7.31.87,18.62-1.72t22.29-5.61q1.36-14,1.8-24.24t-.77-15.54q-1.43-6.25-3.71-6.25a33.27,33.27,0,0,1-6-.66q-2,0-.87-1.58a11.31,11.31,0,0,1,3.9-2.92q2.73-1.39,6.17-2.93a32.47,32.47,0,0,1,5.86-2.1,62.44,62.44,0,0,1,13.58-1.59q6.84,0,9.26,10.56a41.43,41.43,0,0,1,.23,15.41q-1.32,8.67-3.08,25.3,13.26-4,29-9.43t32.77-10.79q17-5.41,33.84-10.53t32.73-8.76q28.42-6.5,47.67-3.3t22.44,17.18q.44,1.93-1.12,1.77-9-1.49-35.79,3.12t-69.71,14.43l-22.4,5.13-24.81,5.68q-12.53,2.87-24.22,6t-20.74,5.76q-3.47,24.7-8.27,55.82t-7.72,58.23q.07,2.53-.55,9.79a103.66,103.66,0,0,0-.22,14.55,32.46,32.46,0,0,0,2.82,12.33q2.41,5,9.17,3.5,5.78-1.32,10.11-7.89a76.38,76.38,0,0,0,7.49-14.9,132.65,132.65,0,0,0,5.2-17.16Q1123.76,396.57,1125,390.71Z"/><path class="cls-3" d="M385.71,861.18a18.88,18.88,0,0,1-12.59-1.6,43.92,43.92,0,0,1-11.6-7.94,54.34,54.34,0,0,1-9.12-11.36,40.82,40.82,0,0,1-5.16-11.86q-6-26.32,1.38-54.51a158.7,158.7,0,0,1,24.36-52,191.75,191.75,0,0,1,40.93-42,144,144,0,0,1,50.9-25.1q43.79-11.64,67.76,4.06t30.57,51.68q4.11,25.15,5.79,43.09a255.9,255.9,0,0,1,1.19,31.92q-.47,14-2,25.3t-2.1,22.89q8.45-27.18,20.81-62.22t26.33-68.37q14-33.34,28-59.38t26.53-35.41c1.43-.86,3.65-1.24,6.67-1.12a32.24,32.24,0,0,1,9.41,1.92,30.68,30.68,0,0,1,9.43,5.59,18,18,0,0,1,6,10,12.17,12.17,0,0,1-.49,5A372,372,0,0,0,681,687.66q-6.37,29.17-11.78,58.93a284.46,284.46,0,0,0-4.13,28.25q-1.79,17.12-2.66,36.47t-.45,37.19q.42,17.84,4,30,3.25-17.86,9.69-41.34t15.24-49.13q8.8-25.64,19.24-51.26t21-47.18a364.27,364.27,0,0,1,21.09-37.83q10.53-16.26,19.72-22.44c1.94-1,5-1.41,9.08-1.26a40.86,40.86,0,0,1,12.38,2.46,50.7,50.7,0,0,1,11.54,5.92c3.54,2.45,5.62,5,6.21,7.54a12,12,0,0,1-.52,6.64,44.56,44.56,0,0,0-1.89,7.77q-9.12,31.43-17.24,67.11t-13,73.07a582.24,582.24,0,0,0-5,74.48,315.63,315.63,0,0,0,7.73,71.17,129.14,129.14,0,0,0,7.37,21.54,102,102,0,0,0,13.33,22.62,71.7,71.7,0,0,0,18.55,16.95q10.46,6.57,23.81,4.33,22-3.41,33.34-14.56t15.88-23.19q4.58-12,4.39-21.79t-1-9.56c3.1-.71,7.86,0,14.32,2s10.41,7.52,11.91,16.43q3.9,17-4.16,29.88A75.8,75.8,0,0,1,898,1010.86a99.93,99.93,0,0,1-27.45,13.62q-14.45,4.53-22.55,4.75-22.83,3.58-41.56-3.53a97.44,97.44,0,0,1-33.4-21.29A130.07,130.07,0,0,1,748.24,971a165.54,165.54,0,0,1-14.9-40.19A273.56,273.56,0,0,1,727,878a480.47,480.47,0,0,1,2-59.13q2.83-30.39,7.88-61.71T749,696.54q-10.52,14.63-20.61,38.13t-19.12,50q-9,26.51-16.29,53.44T679.76,887.2q-5.94,22.14-10.07,36.13T664,937.67q-9.29,2.13-15.74-2.92a40.29,40.29,0,0,1-10.72-13,80.83,80.83,0,0,1-6.7-16.8q-2.44-8.8-3.84-15a255.66,255.66,0,0,1-6.33-54.38,414.21,414.21,0,0,1,3.14-55.73,542.16,542.16,0,0,1,9.57-54.35q6.13-26.65,12.18-50.06a599.24,599.24,0,0,0-30.67,69q-13.64,36.55-24.73,75.34t-20.36,78.42q-9.27,39.62-18.51,77.59-9.49,40.49-25.29,55.09t-28.2,17.45a46.83,46.83,0,0,1-11.2.93c-4.38-.09-6.79-1.17-7.26-3.23a3.2,3.2,0,0,1,.24-2.5l1.19-1.9A72.8,72.8,0,0,0,492,1024.71a143.67,143.67,0,0,0,7.6-18.45,111.64,111.64,0,0,0,4.08-16q1.2-7.19,2-10.66,4.56-26.3,10.11-57.33t8.69-63.52a581.46,581.46,0,0,0,2.65-65,301.82,301.82,0,0,0-7.42-62.69,179,179,0,0,0-6.6-21.72,82.69,82.69,0,0,0-11.34-21,52.27,52.27,0,0,0-16.38-14.59q-9.35-5.2-21.73-2.36-17.82,4.08-35.53,22.8a184.42,184.42,0,0,0-30.36,43.62,212.09,212.09,0,0,0-18.37,51.47q-5.74,26.58.42,46.36,2.18,6,4.77,11.95a58.6,58.6,0,0,1,3.47,9.8C388.57,859.44,387.77,860.7,385.71,861.18Z"/><path class="cls-3" d="M1003.54,804.55c.61-4.48,2.19-7,4.78-7.61q5.41-1.24,7.55,8.05a17.71,17.71,0,0,1,.22,8.1,278.69,278.69,0,0,1-8.25,31.63,185.2,185.2,0,0,1-12.65,30.2,102,102,0,0,1-18,24.5,51.66,51.66,0,0,1-25.45,14q-15,3.44-25.07-4t-13.76-23.75q-3.72-16.26-3.3-25.32a40.52,40.52,0,0,1,.42-9.06,160.33,160.33,0,0,1-12.34,38.68,109.41,109.41,0,0,1-19.47,28.9A57.79,57.79,0,0,1,848,936.32q-15.5,3.55-27.24-6.86a64.35,64.35,0,0,1-17.28-23.86,115.33,115.33,0,0,1-6-22.74,174.09,174.09,0,0,1-2.24-24,143.08,143.08,0,0,1,1.09-21.94,90.51,90.51,0,0,1,3.8-17.23,190.31,190.31,0,0,1,8.37-29.31,169,169,0,0,1,17.34-34.64,151.66,151.66,0,0,1,27.4-31.64,94.66,94.66,0,0,1,39-20.37q27.74-8,43-.21t19.14,17.74q4,10.54,2.63,13.29t-3,3.12a3.19,3.19,0,0,1-2.5-.24.7.7,0,0,1-1-.6q-8.16-7.09-21.37-6.11a151.92,151.92,0,0,0-21.74,2.94q-16,3.66-29.34,16.9a219.91,219.91,0,0,0-23.88,27.88q-4.79,7.63-12.17,30.5a302.9,302.9,0,0,0-11.16,47.38q-3.77,24.51.22,41.92t21.8,13.35Q863,909.25,875.15,893t22.1-38.88a289.44,289.44,0,0,0,15.82-46.41Q919,784,914.89,766.16c-.47-2.06-1.15-3.26-2-3.61a15.35,15.35,0,0,1-2.77-1.4,10.32,10.32,0,0,1-2.56-2.27,13.53,13.53,0,0,1-2-5.24c-.47-2.06.69-4.64,3.53-7.74s8.88-5.7,18.18-7.83a32,32,0,0,1,17.33.92q8.8,2.88,12,16.82,2,8.53,0,28.52-.9,6.74-2.77,18.16t-3.85,24.11q-2,12.68-3.08,23.93t.33,17.45q3.55,15.5,7.62,19t7.94,2.66q9.29-2.13,16-12.21A107.3,107.3,0,0,0,990,854.1,282.59,282.59,0,0,0,998.08,827Q1001.44,813.2,1003.54,804.55Z"/><path class="cls-3" d="M1197.39,757.75q2.45-7.08,4-7.44,7-1.6,8.92,6.92a12.86,12.86,0,0,1-.55,8.28q-3.78,15.53-8.93,32.2A175.51,175.51,0,0,1,1188,828.77,119.47,119.47,0,0,1,1170.12,854a47.83,47.83,0,0,1-24.86,14.25,29,29,0,0,1-14.26,0,62.49,62.49,0,0,1-11.57-4.28,59.18,59.18,0,0,1-8.48-5c-2.29-1.64-3.48-2.73-3.6-3.25q-11-8.88-22.43-25t-24.19-43.37l-.53-2.32a21.35,21.35,0,0,1,0-6.94q.57-4.6,7.19-7.76,4.47-1.83,14.34-8.58a112.41,112.41,0,0,0,19.32-17.05A97.22,97.22,0,0,0,1116.68,722a38.46,38.46,0,0,0,2.94-26.34l-1.33-5.81q-1-4.25-7.95-2.67-3.88.89-11,5.37t-16.88,15.27a221.55,221.55,0,0,0-20.89,28q-11.15,17.22-22.08,44.17-1.19,30.43-4.29,50.7t1.46,33.08c.59,2.59,1.39,5.53,2.43,8.82s2.27,7,3.73,11q2.31,10.08-5.44,11.84a42.76,42.76,0,0,1-12.83.9q-6.63-.51-17.4-11.91-9.63-10-11.12-27.2A214.25,214.25,0,0,1,995.4,826l14.7-128.06a706.46,706.46,0,0,1,11.36-71.46q7.12-33,17.64-58.23t24-41q13.52-15.72,31.33-19.8a30.68,30.68,0,0,1,16.08.8q8.33,2.58,12.41,20.39,3.19,13.94-.48,33.52a160.26,160.26,0,0,1-13.32,39.72,192.65,192.65,0,0,1-24.28,38.15q-14.63,18-33.69,27.27a38.54,38.54,0,0,1-12.45.81q-6.25-.59-7.67-6.8a11.59,11.59,0,0,0,3.92,6.44,15.65,15.65,0,0,0,5.89,4.36c2.41,1.08,5.75,1.41,10,1-.33,3.34-1.05,7.86-2.2,13.54s-2.19,11.78-3.16,18.25-1.89,12.53-2.77,18.16-1.49,10.12-1.81,13.46q5-10.11,12.52-23.65t16.33-26.56a150,150,0,0,1,19.16-23.13q10.31-10.1,20.39-12.41l5.42-1.24a45.5,45.5,0,0,1,15.53,3.78,49.38,49.38,0,0,1,13,10.47q6.51,7.07,9.52,20.23,5.14,22.47-1.95,39.57t-17.92,28.55q-10.83,11.46-21,17t-10.91,5.76q.18.78,5.16,11.86a220.18,220.18,0,0,0,12.82,24,137.75,137.75,0,0,0,18,23.58q10.19,10.72,20.44,9.18,4.83-.28,10.92-11.06a224.19,224.19,0,0,0,11.87-24.72q5.77-13.95,10.29-28T1197.39,757.75Zm-89.81-221.5a87.74,87.74,0,0,0-2.72-8.34q-2.2-6-6.84-5c-1.55.35-3.51,1.9-5.87,4.6s-5.15,8.39-8.34,17-6.94,20.74-11.23,36.39-9.15,36.6-14.55,62.83q2.73-2.25,9.69-7.52T1086.6,612q17.49-26.81,20.48-45.84T1107.58,536.25Z"/><path class="cls-3" d="M1342.35,736a10,10,0,0,1,2.63-6.31,10.1,10.1,0,0,1,5.28-3.65c1.8-.41,3.2.36,4.19,2.3s1,5.48,0,10.6a110.25,110.25,0,0,1-15.5,42.67,163.18,163.18,0,0,1-27.07,33.09,125.23,125.23,0,0,1-32,22q-16.94,7.95-31.22,9.59-23.94,2.23-42.83-7.31T1181,796.54q-3.65-19.53,1-47.1a239.3,239.3,0,0,1,16.12-54.22,169.77,169.77,0,0,1,29.95-47.2q18.53-20.53,44.08-26.39,15.48-3.54,25.16-.46t15.44,8.69a31.71,31.71,0,0,1,8,11.63,86.52,86.52,0,0,1,2.9,9.12q3.58,22.83-4.09,40.87a89.24,89.24,0,0,1-22.89,31.73,136.08,136.08,0,0,1-35.14,22.71,210.34,210.34,0,0,1-40.07,13.65c-2.59.59-4.32,2.49-5.22,5.68a36.41,36.41,0,0,0-1.18,10.87,91.66,91.66,0,0,0,1,11.58c.56,3.68,1,6,1.21,7.06q1.88,11.79,7.26,17.49a30.69,30.69,0,0,0,12.46,8.15,37.23,37.23,0,0,0,15.48,1.76,110.07,110.07,0,0,0,15.37-2.29,76.4,76.4,0,0,0,25.87-11.62,131.24,131.24,0,0,0,23.14-20,103.18,103.18,0,0,0,17.08-25.1A90.08,90.08,0,0,0,1342.35,736Zm-147.75,6.1a7.62,7.62,0,0,1,4.89-3.56q6.19-1.42,14.7,1.93t14.71,1.93a84.81,84.81,0,0,0,28.49-12.63,92.67,92.67,0,0,0,23.38-22.47,96.61,96.61,0,0,0,14.46-29.39,78,78,0,0,0,2.68-32.8q-2.3-10.06-6.71-11.51a15.36,15.36,0,0,0-8.28-.55,41.66,41.66,0,0,0-20,10.68,89.78,89.78,0,0,0-14.83,18.88,133.94,133.94,0,0,0-11,23.29q-4.49,12.45-8.56,23.15c-1.53,5.24-2.72,9.46-3.62,12.65s-1.8,6.4-2.7,9.58-1.17,5.56-.82,7.11a24.45,24.45,0,0,1-10.48-1.27,18.16,18.16,0,0,0-10.3-.5,6.57,6.57,0,0,0-3.31,1.57,24.48,24.48,0,0,1-2.36,2.17l-1.79,2.85A2.3,2.3,0,0,1,1194.61,742.08Z"/><path class="cls-3" d="M1500.78,687.51c.72-4,2.37-6.25,5-6.84q5.41-1.24,7.37,7.28,1.42,6.21-.21,15.12a149.8,149.8,0,0,1-4.71,18.6q-3.09,9.69-7,19.13t-7.35,15.95a117,117,0,0,1-6.72,13.36,71.86,71.86,0,0,1-10,13.29,62.66,62.66,0,0,1-13.8,10.9,50.11,50.11,0,0,1-18.14,6.19q-19.72,2.89-28.87-6.84t-14-27.36a218.25,218.25,0,0,1-3.74-39.49,279.5,279.5,0,0,1,2.3-38,257.51,257.51,0,0,1,6.34-32.83,138.83,138.83,0,0,1,8.38-23.92l4.65-1.06a37.61,37.61,0,0,0,11.95-4.77,53.67,53.67,0,0,0,8.32-6.39,45.3,45.3,0,0,0,5.38-8.56q-9.13,13.51-28.11,17.84t-34.86-1q-7.68,27-13.08,51.48t-9.73,43q-4.32,18.52-7.83,29.91t-8.15,12.46a2.54,2.54,0,0,1-2.68-1,7.11,7.11,0,0,1-1.48-2.92,13.84,13.84,0,0,1-.47-5.6,7.19,7.19,0,0,1,.07-3.27q7.28-35.89,13-64.11,4.92-24.75,8.9-44.82t4.39-21.79q-5.71-3.58-12.63-14.22a70.9,70.9,0,0,1-9.75-23q-5-21.67,2.43-44.57t31.23-29.15c2.06-.47,4.37.1,6.9,1.68a22.22,22.22,0,0,1,5.86,6q3,4.21,4.95,12.72,1.6,7,2,22.78t-7.91,43.78q-1.91-1.19,2.22,4.38t12.82,4.4c.51-.12,2-.31,4.35-.59a40.46,40.46,0,0,0,9.2-2.51,72.2,72.2,0,0,0,13.44-7.15,85.68,85.68,0,0,0,16.28-14.32,13470,13470,0,0,1,7-4.87,15.23,15.23,0,0,1,4.47-1.84q5.41-1.24,9,2a13.84,13.84,0,0,1,4.48,7.12q1.6,7-1.49,16.64t-3.86,9.85q-14.3,30.17-20.73,53.64t-8.23,40.6q-1.79,17.12-.29,29t3.27,19.63c.24,1,.83,3.07,1.8,6.11a59.17,59.17,0,0,0,3.68,8.94,18.59,18.59,0,0,0,5.64,6.86,6.68,6.68,0,0,0,7.11.82q9.29-2.13,16.25-12.68a115.89,115.89,0,0,0,12-24.33,242.5,242.5,0,0,0,8.27-28Q1498.85,696.91,1500.78,687.51ZM1378.59,523.94q-3.88.89-9.18,6.18t-1.59,21.55q3,13.18,12.86,31.29,2.83-16.12,4.85-30.45t.25-22.06q-1.42-6.19-5.64-6.86Z"/><path class="cls-3" d="M1659.06,645.58a2.3,2.3,0,0,0,1.37-1.13,3.45,3.45,0,0,0,1.46-.74,5.53,5.53,0,0,1,2.24-.92,5.36,5.36,0,0,1,5.18,1.26q1.12,1.39-6.87,10.95t-38.57,25.53a68.61,68.61,0,0,1,0,31.79,83.9,83.9,0,0,1-12.91,28.63,90.68,90.68,0,0,1-23.54,22.91,95.57,95.57,0,0,1-32.87,14q-33.11,7.58-50.39-2.32t-20.28-23.07q-2.13-9.29,1.55-19.92a32.34,32.34,0,0,1,13.64-17q1.09-5.94,3.71-26.52t6.15-42.56q3.53-22,5.91-40.06t3-19a57,57,0,0,1-14.56-13.78q-6.95-9-10-22.17a78.64,78.64,0,0,1-1.74-23.64,74.56,74.56,0,0,1,5.07-22.35,52.36,52.36,0,0,1,12.51-18.35q8.35-8,21.52-11a13.74,13.74,0,0,1,9.23,1.15,25.68,25.68,0,0,1,7.31,5.25q3.68,3.65,5.46,11.38,2,8.53-.94,22.63t-12.52,43.21a287.29,287.29,0,0,0,23.51,24.37q12.4,11.43,23.59,23.94a210.36,210.36,0,0,1,20.49,27.1,139.08,139.08,0,0,1,15,32.82Q1647.06,657.29,1659.06,645.58ZM1583.63,706a114.08,114.08,0,0,0,18-9.83,63.62,63.62,0,0,0,11.51-10q-10.27,4.79-22.45,10t-27.25,10.31q-4.45,1.84-16.1,4.09a143.26,143.26,0,0,0-22.87,6.46,53.58,53.58,0,0,0-18.83,11.64q-7.6,7.45-4.78,19.84,2.13,9.29,12.61,12.6t23.6.3q15.41-3.53,31.61-17.83T1583.63,706Zm-53.1-109.28q-1.25,12.51-3.11,27.61t-4.12,30.28q-2.25,15.19-4.78,29.21t-5.24,23.61a49.89,49.89,0,0,1,7.19-2.46c1.81-.42,4.88-1.25,9.23-2.52s10.57-3.23,18.68-5.9,19.68-6.81,34.75-12.43l-1.59-7A132.48,132.48,0,0,0,1562,632.75,177.39,177.39,0,0,0,1530.53,596.75Zm-.76-106.59q-3.88.89-9,7t-.88,24.65q1.06,4.65,3.13,11.92A48.22,48.22,0,0,0,1530,548q4.37-16.47,6.79-30.89t.64-22.15c-.83-3.61-2.34-5.44-4.52-5.49Z"/><path class="cls-3" d="M1266.47,428.07c.26-1.43.86-2.26,1.79-2.47q2-.45,2.67,2.63a5.39,5.39,0,0,1,.08,2.93q-1.15,5.28-2.87,11.27a67,67,0,0,1-4.34,11.28,37.41,37.41,0,0,1-6.17,9.08,15.74,15.74,0,0,1-8,4.81q-6.16,1.41-10.13-.48a13.83,13.83,0,0,1-6.16-5.66,26.49,26.49,0,0,1-3.06-8.88,44.45,44.45,0,0,1-.56-10.19l5.32-46.31a69.11,69.11,0,0,1,1.22-8.83,78.73,78.73,0,0,0,1.29-8.55,30.38,30.38,0,0,0,6.83-3.63q3-2.17,4.31-3a61.78,61.78,0,0,1-6.61,2.69q-2.87,1-6,1.66-13.08,2.11-18-.29t-5.87-6.32q-.32-1.4.58-1.31t2.43.33a32.8,32.8,0,0,0,10.82-1q6.58-1.51,13-3.26.79-8.14,1-14.09a36.39,36.39,0,0,0-.45-9q-.83-3.64-2.16-3.63a19.37,19.37,0,0,1-3.48-.38c-.79,0-1-.32-.5-.92a6.56,6.56,0,0,1,2.26-1.7q1.58-.8,3.59-1.71a18.9,18.9,0,0,1,3.41-1.22,36.32,36.32,0,0,1,7.89-.92q4,0,5.38,6.14a24.07,24.07,0,0,1,.13,9q-.77,5-1.79,14.71,7.71-2.35,16.87-5.48t19-6.27q9.89-3.15,19.67-6.12t19-5.09q16.52-3.78,27.71-1.92t13,10q.26,1.12-.65,1-5.21-.86-20.8,1.82T1307.68,357l-13,3-14.42,3.3q-7.28,1.67-14.08,3.52t-12.05,3.35q-2,14.36-4.81,32.44t-4.49,33.85q0,1.47-.32,5.69a60.06,60.06,0,0,0-.13,8.46,18.85,18.85,0,0,0,1.64,7.17q1.4,2.93,5.33,2,3.36-.77,5.88-4.59a44.26,44.26,0,0,0,4.35-8.66,77.11,77.11,0,0,0,3-10Q1265.77,431.47,1266.47,428.07Z"/><path class="cls-3" d="M1345.44,410c.26-1.43.86-2.26,1.79-2.47q2-.45,2.67,2.63a5.39,5.39,0,0,1,.08,2.93,112.75,112.75,0,0,1-2.95,11.58A68.39,68.39,0,0,1,1342.4,436a37.07,37.07,0,0,1-6.59,9.17,18,18,0,0,1-8.87,5q-5.61,1.28-9.19-2.17a18.73,18.73,0,0,1-5-9.61,73.62,73.62,0,0,1-1.25-15.78q0-10.17,3.57-26.9.11-2.08.22-4.18a35.35,35.35,0,0,0,.15-3.86,17.86,17.86,0,0,0-.41-3.74q-.64-2.8-2.32-2.42-2.24.51-6.34,5.13a67,67,0,0,0-8.52,13,139.34,139.34,0,0,0-8.38,20,114.41,114.41,0,0,0-5.3,26.41,25.53,25.53,0,0,0,.81,4.83c.21.94.48,1.91.81,2.91s.6,2,.81,2.91q.45,2-.33,2.43a7.6,7.6,0,0,1-2.18.79,12.32,12.32,0,0,1-2.9.22,8.76,8.76,0,0,1-3.78-1.05,10.58,10.58,0,0,1-3.76-3.56,21.42,21.42,0,0,1-2.85-7.3,32.58,32.58,0,0,1-.86-7.61q0-3.69.09-6.06l5.32-46.31a231.48,231.48,0,0,1,4.25-25.87,128.85,128.85,0,0,1,6.52-21.09,53.61,53.61,0,0,1,8.83-14.84,21.6,21.6,0,0,1,11.47-7.19,10.12,10.12,0,0,1,1.88-.14,7.89,7.89,0,0,1,2.95.65,9.6,9.6,0,0,1,3.16,2.22,10.22,10.22,0,0,1,2.31,4.92,29.87,29.87,0,0,1-.28,12.29,64.35,64.35,0,0,1-4.89,14.68,61,61,0,0,1-8.92,13.83,34.67,34.67,0,0,1-12.14,9.41,10.36,10.36,0,0,1-4.56,0q-2.32-.5-2.71-2.18a4.19,4.19,0,0,0,1.42,2.33,5.27,5.27,0,0,0,2.27,1.54,8.3,8.3,0,0,0,3.76.32q-1.23,8.83-2.52,18t-2.52,18a98.58,98.58,0,0,1,4.55-13A92.41,92.41,0,0,1,1297,389a59.11,59.11,0,0,1,8.58-10.8,20.6,20.6,0,0,1,9.73-5.76,17.81,17.81,0,0,1,5.64.18,12.58,12.58,0,0,1,4.41,2.53q2.19,1.86,3.15,6.06a37.06,37.06,0,0,1,.45,12.28q-.77,7-2.13,14.52t-2.33,14.92a51.45,51.45,0,0,0-.24,13.12,8.67,8.67,0,0,0,2.6,4.9c1.21,1,2.19,1.43,2.94,1.26q3.36-.77,5.88-4.59a44.43,44.43,0,0,0,4.36-8.66,94.6,94.6,0,0,0,3.16-10Q1344.52,413.74,1345.44,410Zm-34.22-80a5.69,5.69,0,0,0-1.18-3.86,2.59,2.59,0,0,0-2.62-1.17q-.84.19-2,1.77a36.64,36.64,0,0,0-3,6.14,98.37,98.37,0,0,0-4.06,13.16q-2.16,8.6-5.16,22.55a31.79,31.79,0,0,0,10.17-10.29,57,57,0,0,0,5.64-12,42.82,42.82,0,0,0,2.16-10.52A29,29,0,0,0,1311.22,330Z"/><path class="cls-3" d="M1403.19,400.91a3.61,3.61,0,0,1,1-2.28,3.65,3.65,0,0,1,1.91-1.32,1.29,1.29,0,0,1,1.52.83q.53,1.06,0,3.83A39.85,39.85,0,0,1,1402,417.4a58.93,58.93,0,0,1-9.79,12,45.26,45.26,0,0,1-11.59,8,36.87,36.87,0,0,1-11.29,3.47,27.92,27.92,0,0,1-15.49-2.65q-6.82-3.45-9-15.34-1.32-7.06.38-17a86.58,86.58,0,0,1,5.83-19.61,61.38,61.38,0,0,1,10.83-17.07,30.17,30.17,0,0,1,15.94-9.54q5.6-1.28,9.1-.17a14,14,0,0,1,5.58,3.14,11.46,11.46,0,0,1,2.88,4.2,31.19,31.19,0,0,1,1,3.3,26.6,26.6,0,0,1-1.48,14.78,32.26,32.26,0,0,1-8.28,11.47,49.19,49.19,0,0,1-12.71,8.21,76,76,0,0,1-14.49,4.94,2.58,2.58,0,0,0-1.89,2.05,13.18,13.18,0,0,0-.43,3.93,33,33,0,0,0,.37,4.19c.2,1.33.35,2.18.44,2.55a11.72,11.72,0,0,0,2.63,6.32,11.1,11.1,0,0,0,4.51,2.95,13.48,13.48,0,0,0,5.6.63,39.8,39.8,0,0,0,5.56-.83,27.64,27.64,0,0,0,9.35-4.2,47.49,47.49,0,0,0,8.37-7.22,37.37,37.37,0,0,0,6.17-9.08A32.61,32.61,0,0,0,1403.19,400.91Zm-53.43,2.21a2.75,2.75,0,0,1,1.77-1.29,9.13,9.13,0,0,1,5.32.7,9.07,9.07,0,0,0,5.32.7,30.67,30.67,0,0,0,10.3-4.57,33.53,33.53,0,0,0,8.46-8.12,35,35,0,0,0,5.23-10.63,28.19,28.19,0,0,0,1-11.86q-.83-3.64-2.43-4.16a5.56,5.56,0,0,0-3-.2,15.08,15.08,0,0,0-7.22,3.86,32.5,32.5,0,0,0-5.36,6.83,48.42,48.42,0,0,0-4,8.42q-1.62,4.5-3.1,8.37-.83,2.84-1.31,4.57l-1,3.46a5.72,5.72,0,0,0-.29,2.57,8.85,8.85,0,0,1-3.79-.46,6.57,6.57,0,0,0-3.72-.18,2.37,2.37,0,0,0-1.2.57,9.05,9.05,0,0,1-.85.78l-.65,1A.83.83,0,0,1,1349.76,403.11Z"/><g id="Layer_5" data-name="Layer 5"><path class="cls-3" d="M1080.8,90.36a19.14,19.14,0,1,0,22.5,15,19.16,19.16,0,0,0-22.5-15m33.32-39.18a16.2,16.2,0,1,0,19,12.73A16.22,16.22,0,0,0,1114.12,51.18ZM1027.93,68.3A16.2,16.2,0,1,0,1047,81,16.22,16.22,0,0,0,1027.93,68.3Zm154.63,26.08,5.28,26.59L1005.3,157.22,987.49,67.54,1170,31.29l3.18,16a24.43,24.43,0,0,0,9.35,47.07ZM1030.56,0l122,24.52L990.38,56.74Z"/></g></g><g id="Layer_6" data-name="Layer 6"><path class="cls-3" d="M1548.6,117.84l-7.86-1.5A92.66,92.66,0,0,0,1513,36.85l5.23-6.06a100.63,100.63,0,0,1,30.33,87.05M1533.79,115l-47.77-9.1a14.15,14.15,0,0,0-19.12-15.61l41.51-48.11A85.55,85.55,0,0,1,1533.79,115Zm-42.55-26a16.48,16.48,0,1,0,10.14-21A16.88,16.88,0,0,0,1491.24,89Zm14.8,78.23a100.44,100.44,0,1,1-28.45-122.75l-5.23,6.06a92.67,92.67,0,1,0,33.06,94.9l7.86,1.5A100.46,100.46,0,0,1,1506,167.24Zm-38.3-111.34-9.25,10.71A16.47,16.47,0,1,0,1435,83.39a16.27,16.27,0,0,0,7.68,1.56L1412,120.45a4.71,4.71,0,0,0,2.68,7.71l46.07,8.78a16.26,16.26,0,0,0-5,6,16.48,16.48,0,1,0,28.84-1.46l13.9,2.65a85.56,85.56,0,1,1-30.74-88.23Zm-95,94.89a16.48,16.48,0,0,0-20.27-22.74,16.88,16.88,0,0,0-10.14,21,16.48,16.48,0,0,0,30.41,1.75Zm7.17-79.5a16.48,16.48,0,1,0,10.14-21A16.88,16.88,0,0,0,1379.93,71.29Zm40.18,115.33a16.48,16.48,0,1,0,10.14-21A16.87,16.87,0,0,0,1420.12,186.62Zm-26.75-92.77a14.36,14.36,0,1,0,21,18.15,14.48,14.48,0,0,0,1.18-3.58,14.37,14.37,0,0,0-22.19-14.57Zm-.77,44.26a14.37,14.37,0,1,0,19.19-6.68A14.38,14.38,0,0,0,1392.59,138.11Zm3.6,25.56a16.49,16.49,0,1,0,7.67,22A16.5,16.5,0,0,0,1396.19,163.67Zm-28.41-81.55a16.48,16.48,0,1,0,7.67,22A16.5,16.5,0,0,0,1367.78,82.12Z"/></g><g id="Layer_7" data-name="Layer 7"><path class="cls-3" d="M1701.71,342.19a76.71,76.71,0,0,0-.6-11.89l-.5-3.89-3.8,1a16.43,16.43,0,0,1-20.08-20.12l1.09-4.18-4.32-.15a16.47,16.47,0,0,1-12.9-26l2.33-3.31-3.63-1.79a75.39,75.39,0,0,0-31.55-7.82,76.07,76.07,0,1,0,74,78.12ZM1621.26,298a7.78,7.78,0,1,1,7.56,8A7.78,7.78,0,0,1,1621.26,298Zm-55.4,27.9a7.78,7.78,0,1,1,7.56,8A7.78,7.78,0,0,1,1565.86,325.91Zm45.2,18.57a7.78,7.78,0,1,1,7.56,8A7.78,7.78,0,0,1,1611.05,344.48Zm47.48,11.81a7.78,7.78,0,1,1,7.56,8A7.78,7.78,0,0,1,1658.54,356.29Zm-46.19,37.08a7.78,7.78,0,1,1,7.56,8A7.78,7.78,0,0,1,1612.35,393.37Z"/></g></g></svg>